<?xml version="1.0" encoding="UTF-8"?>
<svg xmlns="http://www.w3.org/2000/svg" xmlns:xlink="http://www.w3.org/1999/xlink" width="192pt" height="193pt" viewBox="0 0 192 193" version="1.1">
<defs>
<clipPath id="clip1">
  <path d="M 0 0.722656 L 191.269531 0.722656 L 191.269531 193 L 0 193 Z M 0 0.722656 "/>
</clipPath>
</defs>
<g id="surface1">
<g clip-path="url(#clip1)" clip-rule="nonzero">
<path style=" stroke:none;fill-rule:nonzero;fill:rgb(0%,67.83905%,93.728638%);fill-opacity:1;" d="M 128.433594 96.707031 C 138.144531 98.679688 141.386719 99.886719 141.386719 103.519531 C 141.386719 106.851562 138.167969 109.273438 132.730469 109.273438 C 126.863281 109.273438 123.117188 106.546875 122.808594 102.511719 L 116.800781 102.511719 C 116.449219 93.855469 108.605469 90.101562 99.023438 88.28125 C 89.398438 86.457031 86.230469 85.152344 86.230469 81.523438 C 86.230469 78.292969 89.21875 76.070312 94.523438 76.070312 C 99.839844 76.070312 103.070312 78.582031 103.597656 82.257812 L 111.566406 82.257812 C 111.636719 89.355469 117.375 94.457031 128.433594 96.707031 Z M 94.933594 109.273438 C 89.066406 109.273438 85.320312 106.546875 85.015625 102.511719 L 65.382812 102.511719 C 63.910156 105.855469 60.109375 108.753906 54.570312 108.753906 C 47.316406 108.753906 41.617188 103.292969 41.128906 96.859375 L 79.984375 96.859375 C 80.277344 95.761719 80.375 94.460938 80.375 92.964844 C 83.019531 94.589844 86.445312 95.851562 90.636719 96.707031 C 100.347656 98.679688 103.589844 99.886719 103.589844 103.519531 C 103.589844 106.851562 100.371094 109.273438 94.933594 109.273438 Z M 54.570312 76.792969 C 61.292969 76.792969 66.320312 81.253906 68.007812 86.871094 L 41.617188 86.871094 C 43.429688 81.207031 48.296875 76.792969 54.570312 76.792969 Z M 132.320312 76.070312 C 137.632812 76.070312 140.867188 78.582031 141.394531 82.257812 L 153.066406 82.257812 C 152.9375 77.828125 151 74.15625 147.25 71.328125 C 143.363281 68.402344 138.351562 66.890625 132.21875 66.890625 C 118.769531 66.890625 114.25 73.847656 113.300781 75.464844 C 112.355469 73.933594 107.589844 66.890625 94.421875 66.890625 C 80.304688 66.890625 75.933594 74.433594 74.980469 76.453125 C 70.777344 71.070312 64.210938 66.890625 54.472656 66.890625 C 46.972656 66.890625 40.738281 69.3125 35.871094 74.15625 C 30.90625 79.101562 28.46875 85.253906 28.46875 92.824219 C 28.46875 100.394531 30.90625 106.546875 35.871094 111.394531 C 40.738281 116.238281 46.972656 118.660156 54.472656 118.660156 C 66.851562 118.660156 72.941406 111.628906 74.675781 109.625 C 75.699219 111.285156 80.902344 118.660156 95.035156 118.660156 C 108.054688 118.660156 112.996094 112.488281 113.839844 111.46875 C 114.910156 112.730469 120.207031 118.660156 132.832031 118.660156 C 139.273438 118.660156 144.488281 117.246094 148.578125 114.320312 C 152.566406 111.394531 154.613281 107.660156 154.613281 103.117188 C 154.613281 94.027344 146.625 90.144531 136.820312 88.28125 C 127.195312 86.457031 124.027344 85.152344 124.027344 81.523438 C 124.027344 78.292969 127.015625 76.070312 132.320312 76.070312 Z M 176.554688 41.195312 C 166.296875 28.527344 152.039062 20.320312 135.316406 17.460938 C 135.015625 17.410156 134.726562 17.554688 134.585938 17.804688 C 134.542969 17.875 134.511719 17.953125 134.5 18.039062 C 134.433594 18.425781 134.691406 18.789062 135.078125 18.855469 C 151.457031 21.660156 165.417969 29.691406 175.453125 42.085938 C 187.238281 56.636719 192.027344 75.421875 188.933594 94.96875 C 185.839844 114.550781 175.214844 132.554688 159.023438 145.664062 C 149.21875 153.605469 138.210938 159.136719 126.300781 162.109375 C 117.15625 164.394531 107.722656 165.027344 98.660156 163.992188 C 108.621094 162.988281 118.320312 159.902344 127.042969 154.933594 C 138.015625 148.683594 147.175781 139.5625 153.527344 128.5625 C 159.292969 118.574219 162.496094 107.707031 163.046875 96.265625 C 163.570312 85.351562 161.539062 74.269531 157.179688 64.21875 C 157.023438 63.859375 156.605469 63.695312 156.246094 63.851562 C 155.886719 64.007812 155.722656 64.425781 155.878906 64.785156 C 160.152344 74.636719 162.144531 85.496094 161.628906 96.195312 C 161.089844 107.410156 157.953125 118.0625 152.296875 127.851562 C 146.074219 138.636719 137.097656 147.574219 126.339844 153.703125 C 115.898438 159.652344 104.027344 162.84375 92.007812 162.9375 C 91.648438 162.9375 91.34375 163.214844 91.308594 163.574219 C 91.273438 163.9375 91.515625 164.265625 91.871094 164.339844 C 103.058594 166.667969 115.082031 166.371094 126.644531 163.484375 C 138.753906 160.460938 149.949219 154.835938 159.917969 146.765625 C 176.382812 133.433594 187.183594 115.117188 190.335938 95.191406 C 193.488281 75.238281 188.59375 56.0625 176.554688 41.195312 Z M 134.785156 167.34375 C 134.484375 167.09375 134.035156 167.136719 133.785156 167.4375 C 123.171875 180.21875 109.234375 188.292969 93.480469 190.789062 C 74.984375 193.71875 56.328125 188.472656 40.941406 176.019531 C 25.53125 163.550781 15.253906 145.351562 11.992188 124.769531 C 10.019531 112.308594 10.734375 100.007812 14.113281 88.207031 C 16.707031 79.148438 20.878906 70.660156 26.300781 63.328125 C 22.195312 72.457031 20.015625 82.398438 19.957031 92.4375 C 19.886719 105.070312 23.203125 117.5625 29.554688 128.5625 C 35.320312 138.550781 43.132812 146.757812 52.765625 152.953125 C 61.957031 158.863281 72.566406 162.648438 83.449219 163.894531 C 83.839844 163.9375 84.191406 163.660156 84.234375 163.269531 C 84.28125 162.882812 84 162.53125 83.613281 162.488281 C 72.941406 161.265625 62.539062 157.554688 53.53125 151.761719 C 44.089844 145.6875 36.433594 137.644531 30.78125 127.851562 C 24.554688 117.070312 21.304688 104.828125 21.375 92.445312 C 21.445312 80.429688 24.613281 68.554688 30.542969 58.097656 C 30.722656 57.78125 30.636719 57.382812 30.339844 57.171875 C 30.046875 56.960938 29.640625 57.007812 29.398438 57.277344 C 21.789062 65.800781 16.03125 76.363281 12.75 87.816406 C 9.3125 99.820312 8.585938 112.328125 10.59375 124.992188 C 13.90625 145.917969 24.367188 164.433594 40.050781 177.121094 C 55.753906 189.832031 74.804688 195.179688 93.703125 192.1875 C 109.800781 189.640625 124.039062 181.394531 134.875 168.34375 C 135.070312 168.109375 135.089844 167.785156 134.945312 167.535156 C 134.902344 167.464844 134.851562 167.398438 134.785156 167.34375 Z M 5.6875 45.449219 C 12.398438 27.964844 26.269531 14.429688 44.746094 7.328125 C 63.25 0.222656 84.152344 0.417969 103.605469 7.886719 C 115.382812 12.40625 125.679688 19.175781 134.210938 28.003906 C 140.757812 34.78125 146.023438 42.636719 149.660156 50.996094 C 143.808594 42.878906 136.289062 36.019531 127.625 30.949219 C 116.71875 24.570312 104.242188 21.199219 91.539062 21.199219 C 80.007812 21.199219 68.996094 23.859375 58.8125 29.105469 C 49.097656 34.105469 40.515625 41.40625 33.992188 50.207031 C 33.761719 50.523438 33.828125 50.964844 34.140625 51.199219 C 34.453125 51.429688 34.898438 51.363281 35.132812 51.050781 C 41.527344 42.421875 49.9375 35.269531 59.460938 30.363281 C 69.441406 25.222656 80.234375 22.617188 91.539062 22.617188 C 103.992188 22.617188 116.222656 25.921875 126.90625 32.171875 C 137.28125 38.238281 145.980469 46.925781 152.070312 57.285156 C 152.253906 57.601562 152.640625 57.722656 152.972656 57.574219 C 153.300781 57.425781 153.464844 57.050781 153.351562 56.707031 C 149.773438 45.851562 143.507812 35.585938 135.226562 27.019531 C 126.554688 18.039062 116.085938 11.15625 104.113281 6.5625 C 84.332031 -1.03125 63.070312 -1.226562 44.238281 6.007812 C 25.382812 13.253906 11.21875 27.078125 4.363281 44.9375 C -1.476562 60.152344 -1.453125 76.605469 4.429688 92.519531 C 4.535156 92.804688 4.804688 92.980469 5.09375 92.980469 C 5.175781 92.980469 5.257812 92.96875 5.339844 92.9375 C 5.707031 92.804688 5.894531 92.394531 5.757812 92.027344 C -0.00390625 76.445312 -0.0273438 60.335938 5.6875 45.449219 "/>
</g>
</g>
</svg>
