<?xml version="1.0" encoding="UTF-8" standalone="no"?>
<svg
   xmlns:dc="http://purl.org/dc/elements/1.1/"
   xmlns:cc="http://creativecommons.org/ns#"
   xmlns:rdf="http://www.w3.org/1999/02/22-rdf-syntax-ns#"
   xmlns:svg="http://www.w3.org/2000/svg"
   xmlns="http://www.w3.org/2000/svg"
   version="1.1"
   id="svg28"
   xml:space="preserve"
   width="484.88"
   height="256.37332"
   viewBox="0 0 484.88 256.37332"><metadata
     id="metadata34"><rdf:RDF><cc:Work
         rdf:about=""><dc:format>image/svg+xml</dc:format><dc:type
           rdf:resource="http://purl.org/dc/dcmitype/StillImage" /><dc:title></dc:title></cc:Work></rdf:RDF></metadata><defs
     id="defs32" /><g
     id="g36"
     transform="matrix(1.3333333,0,0,-1.3333333,0,256.37333)"><path
       d="m 258.172,64.0488 c 0,-2.4519 -1.514,-3.2226 -3.773,-3.2226 -2.204,0 -3.691,0.7437 -3.691,3.2226 V 76.968 h -3.251 V 64.0488 c 0,-4.5726 2.424,-6.3906 6.942,-6.3906 4.572,0 7.024,1.818 7.024,6.3906 V 76.968 h -3.251 z m 61.855,26.6461 h 3.251 v 19.0621 h -3.251 z M 255.198,133.07 h -4.023 v 6.391 h 3.967 c 2.094,0 3.113,-1.019 3.113,-3.113 0,-1.956 -0.827,-3.278 -3.057,-3.278 z m 6.39,3.334 c 0,4.352 -2.093,6.142 -6.446,6.142 h -7.189 v -19.063 h 3.222 v 6.502 h 4.243 l 2.617,-6.502 h 3.553 l -3.003,7.438 c 1.957,0.964 3.003,2.618 3.003,5.483 z m -26.63,-75.6892 c -3.527,0 -4.353,2.15 -4.353,6.584 0,4.4364 0.854,6.8602 4.353,6.8602 3.498,0 4.352,-2.4238 4.352,-6.8602 0,-4.4898 -0.827,-6.584 -4.352,-6.584 z m 0,16.5571 c -5.896,0 -7.687,-3.5809 -7.687,-9.9731 0,-6.3898 1.791,-9.6957 7.687,-9.6957 5.894,0 7.685,3.25 7.685,9.6957 0,6.3922 -1.791,9.9731 -7.685,9.9731 z m 15.68,29.5101 h 1.295 l 2.121,-9.2285 h -5.593 z m 4.049,-12.3414 1.047,-3.7457 h 3.251 l -4.49,19.0621 h -6.364 l -4.546,-19.0621 h 3.251 l 0.937,3.7457 z m 18.695,-0.6336 h -7.197 v 15.95 h -3.223 V 90.6949 h 10.42 z m 19.605,3.7465 2.177,9.2285 h 1.295 l 2.121,-9.2285 z m 6.033,12.2035 h -6.363 l -4.545,-19.0621 h 3.25 l 0.936,3.7457 h 6.915 l 1.046,-3.7457 h 3.251 z m 1.439,-51.8511 h 11.9 v 3.0851 h -8.705 v 4.8762 h 7.052 v 3.0297 h -7.052 v 4.9859 h 8.705 v 3.0852 h -11.9 z m 24.647,81.6651 h 1.295 l 2.121,-9.228 h -5.593 z m -2.865,-12.341 h 6.914 l 1.047,-3.747 h 3.251 l -4.491,19.063 h -6.363 l -4.546,-19.063 h 3.251 z M 303.51,106.645 h 5.289 V 90.6949 h 3.25 v 15.9501 h 5.235 v 3.112 H 303.51 Z M 292.245,74.1031 c 1.653,0 4.876,-0.4121 4.876,-0.4121 l 0.11,2.8371 c 0,0 -3.03,0.7438 -5.427,0.7438 -5.399,0 -7.08,-2.9207 -7.08,-9.8617 0,-6.5012 1.323,-9.8071 7.08,-9.8071 2.176,0 5.4,0.6879 5.4,0.6879 l -0.083,2.9199 c 0,0 -3.279,-0.4398 -4.766,-0.4398 -3.636,0 -4.297,1.7898 -4.297,6.6391 0,5.0949 0.854,6.6929 4.187,6.6929 z m -18.019,-6.6109 h -4.022 v 6.3906 h 3.966 c 2.094,0 3.114,-1.0187 3.114,-3.1129 0,-1.9558 -0.826,-3.2777 -3.058,-3.2777 z m 6.391,3.334 c 0,4.3519 -2.094,6.1418 -6.447,6.1418 h -7.189 V 57.9059 h 3.223 v 6.5011 h 4.242 l 2.617,-6.5011 h 3.554 l -3.003,7.4371 c 1.956,0.9652 3.003,2.6172 3.003,5.4832 z m 55.346,22.6781 c -3.526,0 -4.352,2.1488 -4.352,6.5847 0,4.434 0.854,6.858 4.352,6.858 3.499,0 4.353,-2.424 4.353,-6.858 0,-4.491 -0.826,-6.5847 -4.353,-6.5847 z m 0,16.5567 c -5.895,0 -7.685,-3.582 -7.685,-9.972 0,-6.3913 1.79,-9.698 7.685,-9.698 5.896,0 7.686,3.2512 7.686,9.698 0,6.39 -1.79,9.972 -7.686,9.972 z m -59.855,-0.304 V 90.6949 h 10.42 v 3.1121 h -7.197 v 15.95 z m 84.304,0 V 94.716 h -0.469 l -6.06,15.041 h -5.234 V 90.6949 h 3.223 v 15.0411 h 0.468 l 6.226,-15.0411 h 5.096 v 19.0621 z m -45.293,16.812 h -8.705 v 4.876 h 7.052 v 3.03 h -7.052 v 4.986 h 8.705 v 3.085 h -11.901 v -19.063 h 11.901 z m -103.106,-3.086 h 11.901 v 3.086 h -8.705 v 4.876 h 7.052 v 3.03 h -7.052 v 4.986 h 8.705 v 3.085 h -11.901 z m 77.092,15.951 h 3.663 c 2.177,0 3.196,-1.075 3.196,-3.362 0,-2.313 -1.019,-3.718 -3.196,-3.718 h -3.663 z m 0,-10.193 h 3.691 c 4.325,0 6.474,2.507 6.474,6.831 0,4.326 -2.149,6.474 -6.474,6.474 h -6.915 v -19.063 h 3.224 z m -15.909,10.495 c 3.499,0 4.352,-2.423 4.352,-6.859 0,-4.49 -0.826,-6.584 -4.352,-6.584 -3.526,0 -4.353,2.149 -4.353,6.584 0,4.436 0.855,6.859 4.353,6.859 z m 0,-16.556 c 5.895,0 7.686,3.251 7.686,9.697 0,6.391 -1.791,9.972 -7.686,9.972 -5.896,0 -7.686,-3.581 -7.686,-9.972 0,-6.391 1.79,-9.697 7.686,-9.697 z M 218.211,68.952 c -3.195,0.9101 -4.131,1.323 -4.131,2.948 0,1.543 1.129,2.259 3.387,2.259 1.598,0 5.455,-0.441 5.455,-0.441 l 0.248,2.8929 c 0,0 -3.582,0.6879 -5.703,0.6879 -4.104,0 -6.611,-1.8179 -6.611,-5.4539 0,-3.416 1.708,-4.6828 5.841,-5.7578 2.837,-0.716 3.636,-1.2949 3.636,-2.782 0,-1.8461 -1.02,-2.561 -3.279,-2.561 -1.956,0 -5.454,0.4668 -5.454,0.4668 l -0.33,-2.8918 c 0,0 3.719,-0.716 5.812,-0.716 3.857,0 6.502,1.8168 6.502,5.784 0,3.334 -1.406,4.4078 -5.373,5.5649 z m 17.16,54.283 c 4.572,0 7.024,1.819 7.024,6.392 v 12.919 h -3.251 v -12.919 c 0,-2.452 -1.515,-3.223 -3.773,-3.223 -2.204,0 -3.692,0.743 -3.692,3.223 v 12.919 h -3.251 v -12.919 c 0,-4.573 2.425,-6.392 6.943,-6.392 z m -17.16,-21.494 c -3.195,0.909 -4.131,1.322 -4.131,2.947 0,1.543 1.129,2.259 3.387,2.259 1.598,0 5.455,-0.44 5.455,-0.44 l 0.248,2.892 c 0,0 -3.582,0.689 -5.703,0.689 -4.104,0 -6.611,-1.818 -6.611,-5.454 0,-3.416 1.708,-4.684 5.841,-5.7574 2.837,-0.7168 3.636,-1.295 3.636,-2.7828 0,-1.8454 -1.02,-2.5622 -3.279,-2.5622 -1.956,0 -5.454,0.4688 -5.454,0.4688 l -0.33,-2.8922 c 0,0 3.719,-0.7172 5.812,-0.7172 3.857,0 6.502,1.818 6.502,5.7852 0,3.3336 -1.406,4.4078 -5.373,5.5648 z m 13.027,4.904 h 3.664 c 2.177,0 3.195,-1.075 3.195,-3.361 0,-2.314 -1.018,-3.7192 -3.195,-3.7192 h -3.664 z m 0,-10.1934 h 3.691 c 4.325,0 6.474,2.5074 6.474,6.8324 0,4.325 -2.149,6.473 -6.474,6.473 h -6.914 V 90.6949 h 3.223 z m 121.205,46.0944 h -3.25 v -15.04 h -0.469 l -6.06,15.04 h -5.234 v -19.063 h 3.223 v 15.041 h 0.469 l 6.225,-15.041 h 5.096 v 19.063"
       style="fill:#ffffff;fill-opacity:1;fill-rule:nonzero;stroke:none;stroke-width:0.1"
       id="path40" /><path
       d="m 128.432,96.2945 c 9.711,-1.9757 12.954,-3.1828 12.954,-6.8156 0,-3.3309 -3.217,-5.7519 -8.656,-5.7519 -5.868,0 -9.613,2.725 -9.919,6.7609 h -6.012 c -0.35,8.6562 -8.192,12.4101 -17.7756,14.2301 -9.6246,1.826 -12.791,3.128 -12.791,6.76 0,3.229 2.9879,5.45 8.2922,5.45 5.3137,0 8.5474,-2.51 9.0744,-6.187 h 7.967 c 0.071,-7.096 5.809,-12.198 16.866,-14.4465 z M 94.9336,83.727 c -5.8672,0 -9.6121,2.725 -9.9195,6.7609 H 65.3832 c -1.4738,-3.343 -5.2727,-6.241 -10.8137,-6.241 -7.2539,0 -12.9527,5.4582 -13.4394,11.8922 h 38.8562 c 0.2895,1.0996 0.3879,2.3984 0.3891,3.8949 2.6441,-1.6254 6.0703,-2.8875 10.2605,-3.7395 9.7111,-1.9757 12.9541,-3.1828 12.9541,-6.8156 0,-3.3309 -3.217,-5.7519 -8.6564,-5.7519 z m -40.3641,32.479 c 6.725,0 11.752,-4.458 13.4387,-10.076 H 41.6168 c 1.8148,5.664 6.6797,10.076 12.9527,10.076 z m 77.7505,0.722 c 5.314,0 8.548,-2.51 9.075,-6.187 h 11.67 c -0.128,4.429 -2.064,8.104 -5.815,10.93 -3.886,2.927 -8.897,4.44 -15.032,4.44 -13.448,0 -17.969,-6.959 -18.917,-8.575 -0.944,1.531 -5.709,8.575 -18.8787,8.575 -14.1192,0 -18.4871,-7.543 -19.4399,-9.566 -4.2066,5.385 -10.7699,9.566 -20.5105,9.566 -7.4992,0 -13.7317,-2.422 -18.6004,-7.266 -4.9668,-4.945 -7.4016,-11.1 -7.4016,-18.669 0,-7.569 2.4348,-13.724 7.4016,-18.569 4.8687,-4.8441 11.1012,-7.2672 18.6004,-7.2672 12.3812,0 18.4707,7.0321 20.2039,9.0352 1.023,-1.6602 6.2269,-9.0352 20.3605,-9.0352 13.0167,0 17.9597,6.1704 18.8037,7.1934 1.071,-1.2641 6.366,-7.1934 18.992,-7.1934 6.442,0 11.657,1.4133 15.747,4.3411 3.988,2.9261 6.032,6.6601 6.032,11.2011 0,9.0907 -7.986,12.974 -17.792,14.836 -9.624,1.826 -12.791,3.128 -12.791,6.76 0,3.229 2.988,5.45 8.292,5.45 z m 44.235,34.878 c -10.257,12.665 -24.516,20.873 -41.238,23.733 -0.301,0.052 -0.589,-0.094 -0.733,-0.344 -0.041,-0.071 -0.07,-0.149 -0.085,-0.234 -0.066,-0.386 0.193,-0.752 0.579,-0.818 16.377,-2.803 30.339,-10.835 40.375,-23.229 11.785,-14.552 16.573,-33.334 13.481,-52.8847 C 185.839,78.45 175.217,60.4469 159.024,47.334 149.22,39.3949 138.21,33.8621 126.3,30.8891 117.157,28.607 107.721,27.9738 98.6602,29.0059 c 9.9598,1.0062 19.6598,4.0902 28.3808,9.0589 10.976,6.2532 20.134,15.3731 26.485,26.3731 5.767,9.9891 8.97,20.8551 9.519,32.2973 0.524,10.9148 -1.504,21.9958 -5.867,32.0448 -0.156,0.359 -0.573,0.524 -0.932,0.368 -0.358,-0.156 -0.523,-0.573 -0.368,-0.932 4.276,-9.851 6.265,-20.714 5.751,-31.4129 -0.538,-11.214 -3.677,-21.864 -9.33,-31.6562 C 146.073,54.3641 137.097,45.425 126.34,39.2961 115.899,33.348 104.027,30.1559 92.0094,30.0641 91.6465,30.0609 91.3441,29.7852 91.309,29.425 c -0.0356,-0.3609 0.2066,-0.6898 0.5613,-0.7641 11.1877,-2.3277 23.2127,-2.0328 34.7737,0.8532 12.111,3.0238 23.306,8.6488 33.272,16.7187 16.466,13.3332 27.268,31.6492 30.419,51.5746 3.154,19.9536 -1.74,39.1306 -13.78,53.9986 z M 134.784,25.6559 c -0.302,0.25 -0.748,0.2089 -0.998,-0.093 C 123.17,12.782 109.233,4.70586 93.4816,2.21094 74.9863,-0.717969 56.3273,4.52695 40.9414,16.9789 25.5328,29.4488 15.2531,47.65 11.9934,68.2289 c -1.9739,12.4609 -1.2606,24.7629 2.1199,36.5631 2.5953,9.059 6.7652,17.547 12.1894,24.878 -4.1082,-9.128 -6.2879,-19.07 -6.3457,-29.108 -0.0722,-12.6311 3.2465,-25.1229 9.5977,-36.1229 5.7672,-9.9891 13.5762,-18.195 23.2105,-24.393 9.1903,-5.9109 19.8016,-9.6941 30.6856,-10.941 0.3887,-0.0442 0.7398,0.234 0.784,0.6238 0.0445,0.3883 -0.2344,0.7391 -0.6231,0.784 -10.6691,1.223 -21.0707,4.932 -30.0801,10.7262 -9.4421,6.073 -17.0961,14.1168 -22.7492,23.9078 -6.2258,10.7832 -9.4789,23.0269 -9.4078,35.4071 0.0688,12.016 3.2399,23.893 9.1695,34.347 0.1786,0.316 0.0907,0.716 -0.2031,0.926 -0.2945,0.211 -0.7008,0.166 -0.9422,-0.104 C 21.7891,127.198 16.0316,116.637 12.7512,105.182 9.31289,93.1813 8.5875,80.6738 10.5934,68.007 13.9078,47.0809 24.3691,28.568 40.0492,15.877 55.752,3.16797 74.8063,-2.18086 93.7031,0.810938 109.8,3.36094 124.038,11.607 134.876,24.6582 c 0.195,0.234 0.213,0.5566 0.068,0.8066 -0.04,0.0711 -0.094,0.1364 -0.16,0.1911 z M 5.68711,147.552 c 6.71059,17.483 20.58199,31.02 39.05899,38.118 18.5035,7.109 39.4059,6.911 58.8589,-0.556 11.777,-4.521 22.074,-11.289 30.604,-20.117 6.547,-6.777 11.813,-14.632 15.45,-22.995 -5.851,8.121 -13.372,14.98 -22.035,20.049 -10.904,6.379 -23.381,9.75 -36.0834,9.75 -11.5343,0 -22.5461,-2.66 -32.7289,-7.905 -9.7148,-5.003 -18.2969,-12.301 -24.8183,-21.103 -0.2332,-0.315 -0.1672,-0.758 0.1472,-0.991 0.3141,-0.233 0.7578,-0.167 0.9914,0.147 6.3934,8.629 14.8059,15.782 24.3285,20.687 9.9805,5.141 20.7739,7.748 32.0801,7.748 12.4514,0 24.6814,-3.305 35.3674,-9.556 10.371,-6.068 19.072,-14.753 25.161,-25.115 0.183,-0.313 0.574,-0.436 0.903,-0.287 0.33,0.15 0.494,0.524 0.381,0.867 -3.578,10.854 -9.846,21.12 -18.125,29.689 -8.674,8.977 -19.143,15.86 -31.116,20.456 -19.7796,7.593 -41.0432,7.789 -59.8737,0.555 -18.8574,-7.245 -33.018,-21.071 -39.87463,-38.932 -5.84023,-15.215 -5.81758,-31.668 0.06524,-47.581 0.10586,-0.286 0.37695,-0.462 0.66484,-0.462 0.08164,0 0.16445,0.014 0.2457,0.043 0.36719,0.136 0.55469,0.544 0.41875,0.911 -5.76171563,15.584 -5.786325,31.692 -0.07109,46.58"
       style="fill:#ffffff;fill-opacity:1;fill-rule:nonzero;stroke:none;stroke-width:0.1"
       id="path42" /></g></svg>
